<svg xmlns="http://www.w3.org/2000/svg" viewBox="0 0 800 500">
  <defs>
    <linearGradient id="bg" x1="0" y1="0" x2="1" y2="1">
      <stop offset="0" stop-color="#0F172A"/>
      <stop offset="1" stop-color="#1E3A8A"/>
    </linearGradient>
    <linearGradient id="bar" x1="0" y1="0" x2="1" y2="0">
      <stop offset="0" stop-color="#38BDF8"/>
      <stop offset="1" stop-color="#38BDF8" stop-opacity="0.2"/>
    </linearGradient>
  </defs>
  <rect width="800" height="500" fill="url(#bg)"/>
  <circle cx="40" cy="40" r="1.6" fill="#FFFFFF" opacity="0.05"/><circle cx="40" cy="88" r="1.6" fill="#FFFFFF" opacity="0.05"/><circle cx="40" cy="136" r="1.6" fill="#FFFFFF" opacity="0.05"/><circle cx="40" cy="184" r="1.6" fill="#FFFFFF" opacity="0.05"/><circle cx="40" cy="232" r="1.6" fill="#FFFFFF" opacity="0.05"/><circle cx="40" cy="280" r="1.6" fill="#FFFFFF" opacity="0.05"/><circle cx="40" cy="328" r="1.6" fill="#FFFFFF" opacity="0.05"/><circle cx="40" cy="376" r="1.6" fill="#FFFFFF" opacity="0.05"/><circle cx="40" cy="424" r="1.6" fill="#FFFFFF" opacity="0.05"/><circle cx="40" cy="472" r="1.6" fill="#FFFFFF" opacity="0.05"/><circle cx="88" cy="40" r="1.6" fill="#FFFFFF" opacity="0.05"/><circle cx="88" cy="88" r="1.6" fill="#FFFFFF" opacity="0.05"/><circle cx="88" cy="136" r="1.6" fill="#FFFFFF" opacity="0.05"/><circle cx="88" cy="184" r="1.6" fill="#FFFFFF" opacity="0.05"/><circle cx="88" cy="232" r="1.6" fill="#FFFFFF" opacity="0.05"/><circle cx="88" cy="280" r="1.6" fill="#FFFFFF" opacity="0.05"/><circle cx="88" cy="328" r="1.6" fill="#FFFFFF" opacity="0.05"/><circle cx="88" cy="376" r="1.6" fill="#FFFFFF" opacity="0.05"/><circle cx="88" cy="424" r="1.6" fill="#FFFFFF" opacity="0.05"/><circle cx="88" cy="472" r="1.6" fill="#FFFFFF" opacity="0.05"/><circle cx="136" cy="40" r="1.6" fill="#FFFFFF" opacity="0.05"/><circle cx="136" cy="88" r="1.6" fill="#FFFFFF" opacity="0.05"/><circle cx="136" cy="136" r="1.6" fill="#FFFFFF" opacity="0.05"/><circle cx="136" cy="184" r="1.6" fill="#FFFFFF" opacity="0.05"/><circle cx="136" cy="232" r="1.6" fill="#FFFFFF" opacity="0.05"/><circle cx="136" cy="280" r="1.6" fill="#FFFFFF" opacity="0.05"/><circle cx="136" cy="328" r="1.6" fill="#FFFFFF" opacity="0.05"/><circle cx="136" cy="376" r="1.6" fill="#FFFFFF" opacity="0.05"/><circle cx="136" cy="424" r="1.6" fill="#FFFFFF" opacity="0.05"/><circle cx="136" cy="472" r="1.6" fill="#FFFFFF" opacity="0.05"/><circle cx="184" cy="40" r="1.6" fill="#FFFFFF" opacity="0.05"/><circle cx="184" cy="88" r="1.6" fill="#FFFFFF" opacity="0.05"/><circle cx="184" cy="136" r="1.6" fill="#FFFFFF" opacity="0.05"/><circle cx="184" cy="184" r="1.6" fill="#FFFFFF" opacity="0.05"/><circle cx="184" cy="232" r="1.6" fill="#FFFFFF" opacity="0.05"/><circle cx="184" cy="280" r="1.6" fill="#FFFFFF" opacity="0.05"/><circle cx="184" cy="328" r="1.6" fill="#FFFFFF" opacity="0.05"/><circle cx="184" cy="376" r="1.6" fill="#FFFFFF" opacity="0.05"/><circle cx="184" cy="424" r="1.6" fill="#FFFFFF" opacity="0.05"/><circle cx="184" cy="472" r="1.6" fill="#FFFFFF" opacity="0.05"/><circle cx="232" cy="40" r="1.6" fill="#FFFFFF" opacity="0.05"/><circle cx="232" cy="88" r="1.6" fill="#FFFFFF" opacity="0.05"/><circle cx="232" cy="136" r="1.6" fill="#FFFFFF" opacity="0.05"/><circle cx="232" cy="184" r="1.6" fill="#FFFFFF" opacity="0.05"/><circle cx="232" cy="232" r="1.6" fill="#FFFFFF" opacity="0.05"/><circle cx="232" cy="280" r="1.6" fill="#FFFFFF" opacity="0.05"/><circle cx="232" cy="328" r="1.6" fill="#FFFFFF" opacity="0.05"/><circle cx="232" cy="376" r="1.6" fill="#FFFFFF" opacity="0.05"/><circle cx="232" cy="424" r="1.6" fill="#FFFFFF" opacity="0.05"/><circle cx="232" cy="472" r="1.6" fill="#FFFFFF" opacity="0.05"/><circle cx="280" cy="40" r="1.6" fill="#FFFFFF" opacity="0.05"/><circle cx="280" cy="88" r="1.6" fill="#FFFFFF" opacity="0.05"/><circle cx="280" cy="136" r="1.6" fill="#FFFFFF" opacity="0.05"/><circle cx="280" cy="184" r="1.6" fill="#FFFFFF" opacity="0.05"/><circle cx="280" cy="232" r="1.6" fill="#FFFFFF" opacity="0.05"/><circle cx="280" cy="280" r="1.6" fill="#FFFFFF" opacity="0.05"/><circle cx="280" cy="328" r="1.6" fill="#FFFFFF" opacity="0.05"/><circle cx="280" cy="376" r="1.6" fill="#FFFFFF" opacity="0.05"/><circle cx="280" cy="424" r="1.6" fill="#FFFFFF" opacity="0.05"/><circle cx="280" cy="472" r="1.6" fill="#FFFFFF" opacity="0.05"/><circle cx="328" cy="40" r="1.6" fill="#FFFFFF" opacity="0.05"/><circle cx="328" cy="88" r="1.6" fill="#FFFFFF" opacity="0.05"/><circle cx="328" cy="136" r="1.6" fill="#FFFFFF" opacity="0.05"/><circle cx="328" cy="184" r="1.6" fill="#FFFFFF" opacity="0.05"/><circle cx="328" cy="232" r="1.6" fill="#FFFFFF" opacity="0.05"/><circle cx="328" cy="280" r="1.6" fill="#FFFFFF" opacity="0.05"/><circle cx="328" cy="328" r="1.6" fill="#FFFFFF" opacity="0.05"/><circle cx="328" cy="376" r="1.6" fill="#FFFFFF" opacity="0.05"/><circle cx="328" cy="424" r="1.6" fill="#FFFFFF" opacity="0.05"/><circle cx="328" cy="472" r="1.6" fill="#FFFFFF" opacity="0.05"/><circle cx="376" cy="40" r="1.6" fill="#FFFFFF" opacity="0.05"/><circle cx="376" cy="88" r="1.6" fill="#FFFFFF" opacity="0.05"/><circle cx="376" cy="136" r="1.6" fill="#FFFFFF" opacity="0.05"/><circle cx="376" cy="184" r="1.6" fill="#FFFFFF" opacity="0.05"/><circle cx="376" cy="232" r="1.6" fill="#FFFFFF" opacity="0.05"/><circle cx="376" cy="280" r="1.6" fill="#FFFFFF" opacity="0.05"/><circle cx="376" cy="328" r="1.6" fill="#FFFFFF" opacity="0.05"/><circle cx="376" cy="376" r="1.6" fill="#FFFFFF" opacity="0.05"/><circle cx="376" cy="424" r="1.6" fill="#FFFFFF" opacity="0.05"/><circle cx="376" cy="472" r="1.6" fill="#FFFFFF" opacity="0.05"/><circle cx="424" cy="40" r="1.6" fill="#FFFFFF" opacity="0.05"/><circle cx="424" cy="88" r="1.6" fill="#FFFFFF" opacity="0.05"/><circle cx="424" cy="136" r="1.6" fill="#FFFFFF" opacity="0.05"/><circle cx="424" cy="184" r="1.6" fill="#FFFFFF" opacity="0.05"/><circle cx="424" cy="232" r="1.6" fill="#FFFFFF" opacity="0.05"/><circle cx="424" cy="280" r="1.6" fill="#FFFFFF" opacity="0.05"/><circle cx="424" cy="328" r="1.6" fill="#FFFFFF" opacity="0.05"/><circle cx="424" cy="376" r="1.6" fill="#FFFFFF" opacity="0.05"/><circle cx="424" cy="424" r="1.6" fill="#FFFFFF" opacity="0.05"/><circle cx="424" cy="472" r="1.6" fill="#FFFFFF" opacity="0.05"/><circle cx="472" cy="40" r="1.6" fill="#FFFFFF" opacity="0.05"/><circle cx="472" cy="88" r="1.6" fill="#FFFFFF" opacity="0.05"/><circle cx="472" cy="136" r="1.6" fill="#FFFFFF" opacity="0.05"/><circle cx="472" cy="184" r="1.6" fill="#FFFFFF" opacity="0.05"/><circle cx="472" cy="232" r="1.6" fill="#FFFFFF" opacity="0.05"/><circle cx="472" cy="280" r="1.6" fill="#FFFFFF" opacity="0.05"/><circle cx="472" cy="328" r="1.6" fill="#FFFFFF" opacity="0.05"/><circle cx="472" cy="376" r="1.6" fill="#FFFFFF" opacity="0.05"/><circle cx="472" cy="424" r="1.6" fill="#FFFFFF" opacity="0.05"/><circle cx="472" cy="472" r="1.6" fill="#FFFFFF" opacity="0.05"/><circle cx="520" cy="40" r="1.6" fill="#FFFFFF" opacity="0.05"/><circle cx="520" cy="88" r="1.6" fill="#FFFFFF" opacity="0.05"/><circle cx="520" cy="136" r="1.6" fill="#FFFFFF" opacity="0.05"/><circle cx="520" cy="184" r="1.6" fill="#FFFFFF" opacity="0.05"/><circle cx="520" cy="232" r="1.6" fill="#FFFFFF" opacity="0.05"/><circle cx="520" cy="280" r="1.6" fill="#FFFFFF" opacity="0.05"/><circle cx="520" cy="328" r="1.6" fill="#FFFFFF" opacity="0.05"/><circle cx="520" cy="376" r="1.6" fill="#FFFFFF" opacity="0.05"/><circle cx="520" cy="424" r="1.6" fill="#FFFFFF" opacity="0.05"/><circle cx="520" cy="472" r="1.6" fill="#FFFFFF" opacity="0.05"/><circle cx="568" cy="40" r="1.6" fill="#FFFFFF" opacity="0.05"/><circle cx="568" cy="88" r="1.6" fill="#FFFFFF" opacity="0.05"/><circle cx="568" cy="136" r="1.6" fill="#FFFFFF" opacity="0.05"/><circle cx="568" cy="184" r="1.6" fill="#FFFFFF" opacity="0.05"/><circle cx="568" cy="232" r="1.6" fill="#FFFFFF" opacity="0.05"/><circle cx="568" cy="280" r="1.6" fill="#FFFFFF" opacity="0.05"/><circle cx="568" cy="328" r="1.6" fill="#FFFFFF" opacity="0.05"/><circle cx="568" cy="376" r="1.6" fill="#FFFFFF" opacity="0.05"/><circle cx="568" cy="424" r="1.6" fill="#FFFFFF" opacity="0.05"/><circle cx="568" cy="472" r="1.6" fill="#FFFFFF" opacity="0.05"/><circle cx="616" cy="40" r="1.6" fill="#FFFFFF" opacity="0.05"/><circle cx="616" cy="88" r="1.6" fill="#FFFFFF" opacity="0.05"/><circle cx="616" cy="136" r="1.6" fill="#FFFFFF" opacity="0.05"/><circle cx="616" cy="184" r="1.6" fill="#FFFFFF" opacity="0.05"/><circle cx="616" cy="232" r="1.6" fill="#FFFFFF" opacity="0.05"/><circle cx="616" cy="280" r="1.6" fill="#FFFFFF" opacity="0.05"/><circle cx="616" cy="328" r="1.6" fill="#FFFFFF" opacity="0.05"/><circle cx="616" cy="376" r="1.6" fill="#FFFFFF" opacity="0.05"/><circle cx="616" cy="424" r="1.6" fill="#FFFFFF" opacity="0.05"/><circle cx="616" cy="472" r="1.6" fill="#FFFFFF" opacity="0.05"/><circle cx="664" cy="40" r="1.6" fill="#FFFFFF" opacity="0.05"/><circle cx="664" cy="88" r="1.6" fill="#FFFFFF" opacity="0.05"/><circle cx="664" cy="136" r="1.6" fill="#FFFFFF" opacity="0.05"/><circle cx="664" cy="184" r="1.6" fill="#FFFFFF" opacity="0.05"/><circle cx="664" cy="232" r="1.6" fill="#FFFFFF" opacity="0.05"/><circle cx="664" cy="280" r="1.6" fill="#FFFFFF" opacity="0.05"/><circle cx="664" cy="328" r="1.6" fill="#FFFFFF" opacity="0.05"/><circle cx="664" cy="376" r="1.6" fill="#FFFFFF" opacity="0.05"/><circle cx="664" cy="424" r="1.6" fill="#FFFFFF" opacity="0.05"/><circle cx="664" cy="472" r="1.6" fill="#FFFFFF" opacity="0.05"/><circle cx="712" cy="40" r="1.6" fill="#FFFFFF" opacity="0.05"/><circle cx="712" cy="88" r="1.6" fill="#FFFFFF" opacity="0.05"/><circle cx="712" cy="136" r="1.6" fill="#FFFFFF" opacity="0.05"/><circle cx="712" cy="184" r="1.6" fill="#FFFFFF" opacity="0.05"/><circle cx="712" cy="232" r="1.6" fill="#FFFFFF" opacity="0.05"/><circle cx="712" cy="280" r="1.6" fill="#FFFFFF" opacity="0.05"/><circle cx="712" cy="328" r="1.6" fill="#FFFFFF" opacity="0.05"/><circle cx="712" cy="376" r="1.6" fill="#FFFFFF" opacity="0.05"/><circle cx="712" cy="424" r="1.6" fill="#FFFFFF" opacity="0.05"/><circle cx="712" cy="472" r="1.6" fill="#FFFFFF" opacity="0.05"/><circle cx="760" cy="40" r="1.6" fill="#FFFFFF" opacity="0.05"/><circle cx="760" cy="88" r="1.6" fill="#FFFFFF" opacity="0.05"/><circle cx="760" cy="136" r="1.6" fill="#FFFFFF" opacity="0.05"/><circle cx="760" cy="184" r="1.6" fill="#FFFFFF" opacity="0.05"/><circle cx="760" cy="232" r="1.6" fill="#FFFFFF" opacity="0.05"/><circle cx="760" cy="280" r="1.6" fill="#FFFFFF" opacity="0.05"/><circle cx="760" cy="328" r="1.6" fill="#FFFFFF" opacity="0.05"/><circle cx="760" cy="376" r="1.6" fill="#FFFFFF" opacity="0.05"/><circle cx="760" cy="424" r="1.6" fill="#FFFFFF" opacity="0.05"/><circle cx="760" cy="472" r="1.6" fill="#FFFFFF" opacity="0.05"/>
  <circle cx="660" cy="110" r="150" fill="#38BDF8" opacity="0.10"/>
  <circle cx="720" cy="420" r="90" fill="#38BDF8" opacity="0.08"/>
  <rect x="470" y="110" width="270" height="180" rx="18" fill="#0B0F18" stroke="#38BDF8" stroke-opacity="0.5" stroke-width="2"/>
  <rect x="470" y="110" width="270" height="36" rx="18" fill="#141C2E"/>
  <circle cx="494" cy="128" r="5" fill="#FF5F57"/><circle cx="512" cy="128" r="5" fill="#FEBC2E"/><circle cx="530" cy="128" r="5" fill="#28C840"/>
  <text x="492" y="180" font-family="Consolas, 'Courier New', monospace" font-size="20" fill="#34D399">$ boot --os</text>
  <text x="492" y="212" font-family="Consolas, 'Courier New', monospace" font-size="20" fill="#E2E8F0">loading desktop…</text>
  <rect x="492" y="232" width="12" height="22" fill="#38BDF8"/>
  <rect x="56" y="356" width="120" height="7" rx="3.5" fill="url(#bar)"/>
  <text x="56" y="416" font-family="'Segoe UI', system-ui, -apple-system, Arial, sans-serif" font-size="44" font-weight="700" fill="#F8FAFC">My OS Homepage</text>
  <text x="56" y="452" font-family="Consolas, 'Courier New', monospace" font-size="19" fill="#38BDF8">github.com/kael-odin/odin-heim</text>
</svg>